<svg width="32" height="32" viewBox="0 0 32 32" fill="none" xmlns="http://www.w3.org/2000/svg">
<path fill-rule="evenodd" clip-rule="evenodd" d="M27.5 16C27.5 16.8284 26.8284 17.5 26 17.5L6 17.5C5.17157 17.5 4.5 16.8284 4.5 16C4.5 15.1716 5.17157 14.5 6 14.5L26 14.5C26.8284 14.5 27.5 15.1716 27.5 16Z" fill="#09172A"/>
<path fill-rule="evenodd" clip-rule="evenodd" d="M27.5 10C27.5 10.8284 26.8284 11.5 26 11.5L6 11.5C5.17157 11.5 4.5 10.8284 4.5 10C4.5 9.17157 5.17157 8.5 6 8.5L26 8.5C26.8284 8.5 27.5 9.17157 27.5 10Z" fill="#09172A"/>
<path fill-rule="evenodd" clip-rule="evenodd" d="M27.5 22C27.5 22.8284 26.8284 23.5 26 23.5L6 23.5C5.17157 23.5 4.5 22.8284 4.5 22C4.5 21.1716 5.17157 20.5 6 20.5L26 20.5C26.8284 20.5 27.5 21.1716 27.5 22Z" fill="#09172A"/>
</svg>
