<svg width="119" height="24" viewBox="0 0 119 24" fill="none" xmlns="http://www.w3.org/2000/svg">
<path d="M0 15.7729L2.32989 14.0063C3.49901 15.6215 4.85185 16.429 6.38841 16.429C7.12329 16.429 7.6995 16.2692 8.11704 15.9495C8.53458 15.613 8.74335 15.1588 8.74335 14.5868C8.74335 14.1157 8.60139 13.7539 8.31746 13.5016C8.03353 13.2324 7.47402 12.9043 6.63894 12.5174L4.8602 11.7098C2.18793 10.5152 0.851788 8.91693 0.851788 6.91483C0.851788 5.50158 1.36954 4.36593 2.40505 3.50789C3.44056 2.63302 4.75164 2.19558 6.33831 2.19558C7.57423 2.19558 8.65985 2.4816 9.59514 3.05363C10.5304 3.60883 11.2653 4.37434 11.7998 5.35016L9.49493 7.14196C8.64314 5.8633 7.59094 5.22397 6.33831 5.22397C5.73704 5.22397 5.24434 5.36698 4.8602 5.653C4.47606 5.93901 4.28399 6.33439 4.28399 6.83912C4.28399 7.25973 4.41761 7.60463 4.68483 7.87382C4.96876 8.12618 5.47817 8.42061 6.21304 8.7571L8.09199 9.58991C9.51163 10.2292 10.5471 10.9274 11.1985 11.6845C11.8499 12.4248 12.1756 13.3502 12.1756 14.4606C12.1756 15.9579 11.6328 17.1693 10.5471 18.0946C9.46153 19.0032 8.07529 19.4574 6.38841 19.4574C5.00217 19.4574 3.74954 19.1293 2.63052 18.4732C1.52821 17.817 0.651367 16.9169 0 15.7729Z" fill="#262A53"/>
<path d="M24.8169 11.4069V19.1546H21.4599V11.8864C21.4599 11.163 21.2428 10.5825 20.8085 10.1451C20.391 9.69085 19.8398 9.46372 19.1551 9.46372C18.4703 9.46372 17.9024 9.69085 17.4515 10.1451C17.0172 10.5825 16.8001 11.163 16.8001 11.8864V19.1546H13.418V0.227129H16.8001V7.7224C17.6853 6.83071 18.821 6.38486 20.2073 6.38486C21.6102 6.38486 22.7292 6.84753 23.5643 7.77287C24.3994 8.68139 24.8169 9.89275 24.8169 11.4069Z" fill="#262A53"/>
<path d="M26.5696 19.1546V6.66246H29.9517V19.1546H26.5696ZM26.0936 2.11987C26.0936 1.5142 26.3024 1.00946 26.72 0.605679C27.1375 0.201893 27.6469 0 28.2482 0C28.8494 0 29.3588 0.201893 29.7764 0.605679C30.2106 1.00946 30.4277 1.5142 30.4277 2.11987C30.4277 2.70873 30.2106 3.20505 29.7764 3.60883C29.3588 4.01262 28.8494 4.21451 28.2482 4.21451C27.6469 4.21451 27.1375 4.01262 26.72 3.60883C26.3024 3.20505 26.0936 2.70873 26.0936 2.11987Z" fill="#262A53"/>
<path d="M43.1934 11.4069V19.1546H39.8364V11.8612C39.8364 11.1377 39.6192 10.5573 39.185 10.1199C38.7674 9.66562 38.2163 9.43849 37.5315 9.43849C36.8467 9.43849 36.2789 9.66562 35.8279 10.1199C35.3937 10.5573 35.1766 11.1377 35.1766 11.8612V19.1546H31.7945V6.66246H34.901V7.79811C35.8363 6.85594 37.0472 6.38486 38.5336 6.38486C39.97 6.38486 41.1057 6.83912 41.9408 7.74763C42.7759 8.65615 43.1934 9.87592 43.1934 11.4069Z" fill="#262A53"/>
<path d="M53.4139 6.66246H56.9714L51.0339 20.2397C50.466 21.5352 49.7896 22.4858 49.0046 23.0915C48.2196 23.6972 47.2509 24 46.0985 24C45.3971 24 44.6705 23.8991 43.9189 23.6972V20.8454C44.6037 20.9127 45.0881 20.9464 45.372 20.9464C46.0067 20.9464 46.5244 20.8202 46.9253 20.5678C47.3261 20.3155 47.6685 19.878 47.9524 19.2555L48.3282 18.3975L43.5682 6.66246H47.1507L50.1821 14.8644L53.4139 6.66246Z" fill="#262A53"/>
<path d="M62.0286 15.7729L64.3585 14.0063C65.5277 15.6215 66.8805 16.429 68.4171 16.429C69.1519 16.429 69.7281 16.2692 70.1457 15.9495C70.5632 15.613 70.772 15.1588 70.772 14.5868C70.772 14.1157 70.63 13.7539 70.3461 13.5016C70.0622 13.2324 69.5027 12.9043 68.6676 12.5174L66.8888 11.7098C64.2166 10.5152 62.8804 8.91693 62.8804 6.91483C62.8804 5.50158 63.3982 4.36593 64.4337 3.50789C65.4692 2.63302 66.7803 2.19558 68.367 2.19558C69.6029 2.19558 70.6885 2.4816 71.6238 3.05363C72.5591 3.60883 73.294 4.37434 73.8284 5.35016L71.5236 7.14196C70.6718 5.8633 69.6196 5.22397 68.367 5.22397C67.7657 5.22397 67.273 5.36698 66.8888 5.653C66.5047 5.93901 66.3126 6.33439 66.3126 6.83912C66.3126 7.25973 66.4463 7.60463 66.7135 7.87382C66.9974 8.12618 67.5068 8.42061 68.2417 8.7571L70.1206 9.58991C71.5403 10.2292 72.5758 10.9274 73.2271 11.6845C73.8785 12.4248 74.2042 13.3502 74.2042 14.4606C74.2042 15.9579 73.6614 17.1693 72.5758 18.0946C71.4902 19.0032 70.1039 19.4574 68.4171 19.4574C67.0308 19.4574 65.7782 19.1293 64.6592 18.4732C63.5569 17.817 62.68 16.9169 62.0286 15.7729Z" fill="#262A53"/>
<path d="M86.8456 11.4069V19.1546H83.4885V11.8864C83.4885 11.163 83.2714 10.5825 82.8372 10.1451C82.4196 9.69085 81.8685 9.46372 81.1837 9.46372C80.4989 9.46372 79.9311 9.69085 79.4801 10.1451C79.0459 10.5825 78.8288 11.163 78.8288 11.8864V19.1546H75.4467V0.227129H78.8288V7.7224C79.7139 6.83071 80.8497 6.38486 82.2359 6.38486C83.6389 6.38486 84.7579 6.84753 85.593 7.77287C86.428 8.68139 86.8456 9.89275 86.8456 11.4069Z" fill="#262A53"/>
<path d="M88.5983 19.1546V6.66246H91.9804V19.1546H88.5983ZM88.1223 2.11987C88.1223 1.5142 88.3311 1.00946 88.7486 0.605679C89.1661 0.201893 89.6756 0 90.2768 0C90.8781 0 91.3875 0.201893 91.805 0.605679C92.2393 1.00946 92.4564 1.5142 92.4564 2.11987C92.4564 2.70873 92.2393 3.20505 91.805 3.60883C91.3875 4.01262 90.8781 4.21451 90.2768 4.21451C89.6756 4.21451 89.1661 4.01262 88.7486 3.60883C88.3311 3.20505 88.1223 2.70873 88.1223 2.11987Z" fill="#262A53"/>
<path d="M105.222 11.4069V19.1546H101.865V11.8612C101.865 11.1377 101.648 10.5573 101.214 10.1199C100.796 9.66562 100.245 9.43849 99.5602 9.43849C98.8754 9.43849 98.3075 9.66562 97.8566 10.1199C97.4223 10.5573 97.2052 11.1377 97.2052 11.8612V19.1546H93.8231V6.66246H96.9296V7.79811C97.8649 6.85594 99.0758 6.38486 100.562 6.38486C101.999 6.38486 103.134 6.83912 103.969 7.74763C104.805 8.65615 105.222 9.87592 105.222 11.4069Z" fill="#262A53"/>
<path d="M115.443 6.66246H119L113.063 20.2397C112.495 21.5352 111.818 22.4858 111.033 23.0915C110.248 23.6972 109.28 24 108.127 24C107.426 24 106.699 23.8991 105.948 23.6972V20.8454C106.632 20.9127 107.117 20.9464 107.401 20.9464C108.035 20.9464 108.553 20.8202 108.954 20.5678C109.355 20.3155 109.697 19.878 109.981 19.2555L110.357 18.3975L105.597 6.66246H109.179L112.211 14.8644L115.443 6.66246Z" fill="#262A53"/>
</svg>
