<svg width="65" height="61" viewBox="0 0 65 61" fill="none" xmlns="http://www.w3.org/2000/svg">
<path d="M44.6484 27.6851C46.4235 27.5617 48.2049 27.8103 49.8784 28.4151C51.8197 29.1771 53.4434 30.5781 54.4815 32.3869C55.5195 34.1958 55.91 36.3044 55.5884 38.3651C55.4888 39.773 55.2167 41.1634 54.7784 42.5051C52.4684 47.2551 48.8484 49.3351 43.8484 48.7951C41.7468 48.5136 39.7815 47.5965 38.2158 46.1666C36.6501 44.7368 35.5589 42.8626 35.0884 40.7951C33.8184 35.5351 37.4784 29.6251 42.9684 28.0951C43.5184 27.9051 44.0884 27.8051 44.6484 27.6851Z" fill="#09172A"/>
<path d="M22.739 42.245C16.219 42.245 11.949 36.545 13.919 30.795C15.199 27.065 17.409 23.905 21.729 23.295C23.3336 22.9814 24.9946 23.1373 26.5129 23.7439C28.0311 24.3505 29.3422 25.3821 30.289 26.715C31.2382 27.9738 31.813 29.4748 31.9474 31.0456C32.0819 32.6164 31.7705 34.1932 31.049 35.595C29.679 38.715 27.809 41.205 24.309 42.025C23.7906 42.1302 23.2663 42.2037 22.739 42.245Z" fill="#09172A"/>
<path d="M17.0387 49.655C16.9287 52.375 15.1487 54.805 12.0387 56.295C7.98866 58.215 2.22866 56.475 0.548659 52.895C0.0187461 51.8592 -0.133312 50.6709 0.118666 49.535C1.30867 44.755 5.31867 40.305 11.1187 41.535C14.4787 42.235 17.0587 45.315 17.0387 49.655Z" fill="#09172A"/>
<path d="M1.50996 31.8551C-0.300043 28.8551 0.0899515 25.555 0.589952 22.395C1.02995 19.635 3.95996 17.575 6.75996 17.395C8.09824 17.3348 9.42088 17.7028 10.5358 18.4455C11.6507 19.1881 12.4999 20.2669 12.96 21.525C13.0536 21.7137 13.157 21.8973 13.27 22.0751C13.5908 23.1769 13.6448 24.3392 13.4274 25.466C13.2101 26.5928 12.7276 27.6517 12.02 28.555C11.7976 28.8475 11.653 29.1915 11.6 29.555C11.494 30.6282 11.0493 31.6399 10.3301 32.4435C9.61102 33.2471 8.65482 33.801 7.59995 34.025C6.5621 34.3149 5.46153 34.2901 4.43783 33.9536C3.41413 33.6171 2.51343 32.9842 1.84995 32.1351L1.50996 31.8551Z" fill="#09172A"/>
<path d="M22.6192 53.385C22.6403 51.4568 23.4246 49.6155 24.8002 48.2642C26.1759 46.9128 28.0309 46.1616 29.9592 46.175C31.9032 46.1644 33.7719 46.9265 35.154 48.2936C36.5362 49.6608 37.3186 51.521 37.3292 53.465C37.3398 55.409 36.5777 57.2777 35.2106 58.6598C33.8434 60.042 31.9832 60.8244 30.0392 60.835C29.057 60.8541 28.0811 60.6743 27.1702 60.3063C26.2593 59.9383 25.4323 59.3898 24.7391 58.6937C24.0458 57.9977 23.5006 57.1685 23.1363 56.2561C22.772 55.3438 22.5961 54.3671 22.6192 53.385Z" fill="#09172A"/>
<path d="M37.5397 20.6551C35.7099 20.6529 33.9221 20.1071 32.4032 19.0867C30.8844 18.0663 29.7031 16.6176 29.0094 14.9244C28.3157 13.2313 28.1409 11.3701 28.5071 9.57742C28.8734 7.78471 29.7643 6.1413 31.0665 4.85596C32.3688 3.57061 34.0237 2.70133 35.821 2.35852C37.6184 2.01571 39.4771 2.21482 41.161 2.9306C42.8449 3.64638 44.2781 4.84652 45.2786 6.37857C46.279 7.91061 46.8015 9.70544 46.7797 11.5351C46.7758 12.7417 46.5332 13.9357 46.066 15.0483C45.5988 16.1609 44.9161 17.17 44.0573 18.0177C43.1985 18.8653 42.1805 19.5348 41.0619 19.9874C39.9433 20.44 38.7463 20.6669 37.5397 20.6551Z" fill="#09172A"/>
<path d="M48.3184 19.17C48.3763 17.0956 49.2148 15.1194 50.6664 13.6363C52.1179 12.1532 54.0757 11.2725 56.1484 11.17C60.5084 11.04 64.1984 14.77 64.3684 19.48C64.5184 23.56 60.5484 27.37 56.0984 27.4C51.9584 27.4 48.4284 23.69 48.3184 19.17Z" fill="#09172A"/>
<path d="M26.1598 7.51501C25.7898 10.355 23.6698 13.085 20.7098 15.065C20.1921 15.3582 19.6204 15.5436 19.0291 15.6101C18.4378 15.6766 17.8392 15.6227 17.2693 15.4517C16.6994 15.2807 16.17 14.9962 15.7129 14.6153C15.2559 14.2343 14.8807 13.7648 14.6098 13.235C13.2723 10.7383 12.7943 7.87055 13.2498 5.07501C13.6041 3.47037 14.5558 2.06068 15.9115 1.13207C17.2673 0.203471 18.9256 -0.174453 20.5498 0.0750064C23.7898 0.525006 26.1898 3.31501 26.1598 7.51501Z" fill="#09172A"/>
</svg>
