<svg width="44" height="61" viewBox="0 0 44 61" fill="none" xmlns="http://www.w3.org/2000/svg">
<path d="M20.1929 56.8288C20.0958 55.6321 20.4049 54.4376 21.0703 53.4381C22.8466 50.4855 24.5206 47.467 26.4066 44.5869C27.0444 43.5722 26.7255 43.4177 25.8045 43.2567C22.6191 42.6738 19.4451 42.0338 16.2476 41.494C15.2642 41.3639 14.3206 41.0229 13.4811 40.4945C12.1401 38.6689 12.302 36.8842 13.4418 34.9746C15.2752 31.8847 17.0373 28.7841 19.1626 25.581C15.912 24.9659 12.8106 24.3648 9.72342 23.7631C8.99896 23.6822 8.30566 23.4238 7.705 23.0107C7.0299 22.5923 6.52718 21.9457 6.28808 21.1883C6.04899 20.4308 6.08936 19.6128 6.40187 18.8826C7.60407 15.3275 8.79956 11.7799 10.102 8.24834C10.6105 6.90004 10.1281 6.73213 9.02767 6.81343C7.04197 6.8878 5.06028 6.89826 3.07255 6.93026C1.45277 6.95869 0.425195 6.20113 0.253619 4.84309C0.167098 4.21269 0.334472 3.57372 0.718935 3.06668C1.1034 2.55964 1.67348 2.22605 2.30385 2.13922C6.40554 1.05168 10.6414 0.554523 14.8834 0.662777C17.7026 0.696939 19.1257 2.75928 18.2708 5.441C17.2017 8.81973 16.1622 12.2253 14.9558 15.547C14.4823 16.8865 14.5465 17.4852 16.1638 17.6975C19.3202 18.119 22.4383 18.7759 25.5672 19.3615C28.6961 19.9471 29.8687 22.6869 28.0714 25.3503C25.9233 28.3028 23.9534 31.381 22.1722 34.5684C23.783 35.0424 25.4256 35.401 27.0873 35.6414C29.3411 36.1346 31.5074 36.7241 33.7343 37.3956C34.3541 37.5586 34.9257 37.8681 35.401 38.2981C35.8762 38.7282 36.2411 39.2661 36.465 39.8667C36.6889 40.4672 36.7653 41.1128 36.6876 41.749C36.6098 42.3852 36.3804 42.9934 36.0185 43.5224C35.0709 45.0122 34.3432 46.6613 32.9777 47.8527C31.8187 49.4065 30.7806 51.0469 29.8725 52.7594C32.8855 52.9966 35.7775 53.2184 38.6782 53.4752C39.3009 53.5031 39.9204 53.5822 40.5302 53.7117C41.385 53.8785 42.1483 54.3546 42.6741 55.049C43.2 55.7433 43.4514 56.6071 43.3803 57.4751C43.3644 58.3762 43.0006 59.2362 42.365 59.8752C41.7294 60.5141 40.8713 60.8823 39.9703 60.9029C38.457 60.9151 36.9445 60.8318 35.4417 60.6537C31.4977 60.3409 27.5576 59.9643 23.6089 59.7014C22.8112 59.6382 22.0531 59.3273 21.4407 58.8123C20.8282 58.2973 20.392 57.6039 20.1929 56.8288Z" fill="#09172A"/>
</svg>
