<svg width="29" height="68" viewBox="0 0 29 68" fill="none" xmlns="http://www.w3.org/2000/svg">
<path d="M5.82422 58.262C6.04943 57.0827 6.66552 56.0136 7.57303 55.2275C10.0716 52.8546 12.4891 50.391 15.0741 48.1174C15.9592 47.3092 15.6929 47.0753 14.8481 46.6748C11.933 45.2646 9.04413 43.8023 6.10592 42.4303C5.19272 42.0429 4.37392 41.463 3.7055 40.7301C2.89926 38.6132 3.5306 36.9361 5.13791 35.3991C7.72808 32.9091 10.2524 30.3899 13.154 27.8686C10.1846 26.4099 7.35542 25.0045 4.54001 23.6022C3.86327 23.3313 3.26384 22.8975 2.79488 22.3394C2.25562 21.7563 1.94328 20.9991 1.91457 20.2054C1.88585 19.4116 2.14265 18.6339 2.63836 18.0133C4.74402 14.9069 6.84123 11.8058 9.03726 8.74873C9.88651 7.58457 9.46627 7.29424 8.38392 7.0795C6.45015 6.62229 4.53725 6.10456 2.6128 5.60596C1.04396 5.20194 0.255283 4.19805 0.451617 2.84337C0.536131 2.21269 0.867646 1.64139 1.37327 1.25507C1.87889 0.86875 2.51724 0.699046 3.14796 0.783253C7.39116 0.827482 11.6064 1.47649 15.6663 2.7107C18.3746 3.49452 19.197 5.86141 17.6587 8.21856C15.7283 11.1905 13.8193 14.1962 11.7718 17.0765C10.9586 18.2415 10.861 18.8357 12.3632 19.4711C15.2934 20.7181 18.1239 22.1818 20.9839 23.5796C23.8438 24.9774 24.2442 27.9306 21.8024 30.0191C18.9455 32.2928 16.2269 34.7351 13.6611 37.3329C15.0875 38.2188 16.5752 39.0019 18.1129 39.6763C20.1538 40.7519 22.0849 41.8971 24.0525 43.1375C24.6065 43.4597 25.0751 43.9103 25.4186 44.4514C25.7621 44.9925 25.9706 45.6082 26.0264 46.2467C26.0823 46.8852 25.9839 47.5277 25.7396 48.1203C25.4952 48.7128 25.1121 49.2379 24.6224 49.6514C23.3121 50.835 22.1715 52.2307 20.538 53.0153C19.007 54.2043 17.5695 55.509 16.2381 56.9178C19.0791 57.9489 21.8075 58.933 24.535 59.9531C25.1278 60.1459 25.7038 60.3871 26.2571 60.6743C27.0366 61.0628 27.6456 61.725 27.9674 62.5343C28.2893 63.3436 28.3016 64.2432 28.0018 65.0609C27.7466 65.9252 27.1668 66.6573 26.384 67.1038C25.6012 67.5504 24.676 67.6768 23.8021 67.4566C22.3402 67.0653 20.9045 66.5822 19.5035 66.0102C15.7852 64.6583 12.0878 63.2458 8.35173 61.9406C7.59967 61.6673 6.9518 61.1658 6.49865 60.5062C6.0455 59.8467 5.8097 59.0621 5.82422 58.262Z" fill="white"/>
</svg>
