<svg width="20" height="20" viewBox="0 0 20 20" fill="none" xmlns="http://www.w3.org/2000/svg">
<path d="M11.1491 3.92032C11.0991 6.05032 11.0991 6.04032 13.2091 5.70032C14.5755 5.36104 15.9726 5.16002 17.3792 5.10031C18.0364 5.09482 18.6695 5.34733 19.1426 5.80356C19.6156 6.25979 19.8908 6.88335 19.9092 7.54031C20.0114 8.22029 19.8453 8.91338 19.446 9.47318C19.0466 10.033 18.4454 10.4156 17.7692 10.5403C15.9172 10.8283 14.0424 10.9422 12.1692 10.8803C11.1692 10.8803 10.7792 11.2403 10.7992 12.2403C10.7545 14.0707 10.5335 15.8924 10.1392 17.6803C9.93917 18.8103 9.40915 19.6803 8.08915 19.6203C6.76915 19.5603 6.29915 18.7503 6.08915 17.6203C5.68653 15.7829 5.46217 13.9109 5.41917 12.0303C5.41917 11.1103 5.08916 10.7003 4.15916 10.6803C3.32549 10.6571 2.49399 10.5836 1.66916 10.4603C0.779165 10.3403 0.0291613 9.98032 0.00916127 8.92032C-0.0365158 8.44463 0.0896316 7.96832 0.364783 7.57761C0.639934 7.18689 1.0459 6.90759 1.50916 6.79031C1.71674 6.75005 1.92772 6.72996 2.13917 6.73032C5.13917 6.47032 5.13917 6.47031 5.04917 3.38031C5.04917 2.15031 5.22917 1.06032 6.41917 0.450317C6.94435 0.155086 7.53669 0 8.13917 0C8.74164 0 9.33398 0.155086 9.85917 0.450317C10.9492 1.07032 11.1991 1.85032 11.1491 3.92032Z" fill="white"/>
</svg>
